<svg width="10" height="14" viewBox="0 0 10 14" fill="none" xmlns="http://www.w3.org/2000/svg">
<g clip-path="url(#clip0_265_6858)">
<path d="M2.80996 13.4821C3.99423 13.4821 4.95538 12.5208 4.95538 11.3362V9.1904H2.80996C1.6257 9.1904 0.664551 10.1517 0.664551 11.3362C0.664551 12.5208 1.6257 13.4821 2.80996 13.4821Z" fill="#09BA76"/>
<path d="M0.664551 7.04458C0.664551 5.86008 1.6257 4.89874 2.80996 4.89874H4.95538V9.19042H2.80996C1.6257 9.19042 0.664551 8.22909 0.664551 7.04458Z" fill="#9150E5"/>
<path d="M0.664551 2.7529C0.664551 1.56839 1.6257 0.607056 2.80996 0.607056H4.95538V4.89874H2.80996C1.6257 4.89874 0.664551 3.9374 0.664551 2.7529Z" fill="#D9461B"/>
<path d="M4.95508 0.607056H7.10049C8.28476 0.607056 9.24591 1.56839 9.24591 2.7529C9.24591 3.9374 8.28476 4.89874 7.10049 4.89874H4.95508V0.607056Z" fill="#E56658"/>
<path d="M9.24591 7.04458C9.24591 8.22909 8.28476 9.19042 7.10049 9.19042C5.91622 9.19042 4.95508 8.22909 4.95508 7.04458C4.95508 5.86008 5.91622 4.89874 7.10049 4.89874C8.28476 4.89874 9.24591 5.86008 9.24591 7.04458Z" fill="#17A9E4"/>
</g>
<defs>
<clipPath id="clip0_265_6858">
<rect width="8.58337" height="12.8751" fill="white" transform="translate(0.663574 0.607056)"/>
</clipPath>
</defs>
</svg>
