<svg width="44" height="21" viewBox="0 0 44 21" fill="none" xmlns="http://www.w3.org/2000/svg">
<rect y="0.0483856" width="44" height="20" rx="5" fill="white"/>
<path d="M24.9216 15.0465H19.2295V4.76362H24.9217L24.9216 15.0465Z" fill="#FF5F00"/>
<path d="M19.5903 9.90527C19.5903 7.81939 20.5619 5.96128 22.0749 4.76383C20.9296 3.85609 19.5132 3.36343 18.0547 3.36559C14.4621 3.36559 11.5498 6.29346 11.5498 9.90527C11.5498 13.5171 14.4621 16.4449 18.0547 16.4449C19.5132 16.4471 20.9297 15.9545 22.075 15.0467C20.5621 13.8495 19.5903 11.9913 19.5903 9.90527Z" fill="#EB001B"/>
<path d="M32.6009 9.90527C32.6009 13.5171 29.6886 16.4449 26.096 16.4449C24.6373 16.4471 23.2207 15.9544 22.0752 15.0467C23.5886 13.8493 24.5602 11.9913 24.5602 9.90527C24.5602 7.81928 23.5886 5.96128 22.0752 4.76383C23.2206 3.85612 24.6373 3.36346 26.0959 3.36559C29.6885 3.36559 32.6008 6.29346 32.6008 9.90527" fill="#F79E1B"/>
</svg>
