<svg width="15" height="14" viewBox="0 0 15 14" fill="none" xmlns="http://www.w3.org/2000/svg">
<g clip-path="url(#clip0_210_5754)">
<path fill-rule="evenodd" clip-rule="evenodd" d="M3.63903 5.18865L7.85095 13.4227L0.771484 5.18865H3.63903Z" fill="#EA6C00"/>
<path fill-rule="evenodd" clip-rule="evenodd" d="M12.0641 5.18865L7.85216 13.4227L14.9316 5.18865H12.0641Z" fill="#EA6C00"/>
<path fill-rule="evenodd" clip-rule="evenodd" d="M3.63867 5.18865H12.0625L7.85059 13.4227L3.63867 5.18865Z" fill="#FDAD00"/>
<path fill-rule="evenodd" clip-rule="evenodd" d="M7.8506 0.625376L3.86036 1.04666L3.63867 5.18868L7.8506 0.625376Z" fill="#FDD231"/>
<path fill-rule="evenodd" clip-rule="evenodd" d="M7.85059 0.625376L11.8408 1.04666L12.0625 5.18868L7.85059 0.625376Z" fill="#FDD231"/>
<path fill-rule="evenodd" clip-rule="evenodd" d="M14.9316 5.18868L11.8424 1.04666L12.0641 5.18868H14.9316Z" fill="#FDAD00"/>
<path fill-rule="evenodd" clip-rule="evenodd" d="M0.771484 5.18868L3.86072 1.04666L3.63904 5.18868H0.771484Z" fill="#FDAD00"/>
<path fill-rule="evenodd" clip-rule="evenodd" d="M7.85059 0.625376L3.63867 5.18868H12.0625L7.85059 0.625376Z" fill="#FEEEB7"/>
</g>
<defs>
<clipPath id="clip0_210_5754">
<rect width="14.2406" height="12.8751" fill="white" transform="translate(0.745117 0.562473)"/>
</clipPath>
</defs>
</svg>
