<svg width="44" height="21" viewBox="0 0 44 21" fill="none" xmlns="http://www.w3.org/2000/svg">
<rect y="0.0483856" width="44" height="20" rx="5" fill="white"/>
<path fill-rule="evenodd" clip-rule="evenodd" d="M29.4339 5.06538L29.0519 7.28459C27.9065 6.65018 25.2998 6.50007 25.2995 7.66856C25.2995 8.13276 25.8893 8.45201 26.6002 8.83679C27.6783 9.42034 29.0348 10.1546 29.0348 11.7739C29.0348 14.3613 26.2794 15.312 24.4528 15.312C22.6268 15.312 21.4317 14.7284 21.4317 14.7284L21.8296 12.408C22.9255 13.2923 26.2461 13.5436 26.2461 12.1413C26.2461 11.552 25.5924 11.2045 24.8344 10.8015C23.7885 10.2455 22.544 9.58387 22.544 8.03594C22.544 5.19835 25.6983 4.6148 27.0265 4.6148C28.2552 4.6148 29.4339 5.06538 29.4339 5.06538ZM38.3645 15.1337H35.9068L35.5933 13.5986H32.1908L31.6328 15.1337H28.8426L32.8345 5.56932C32.8345 5.56932 33.0765 4.79918 34.0701 4.79918H36.2217L38.3645 15.1337ZM14.8542 4.79945L12.3025 11.9074L12.0005 10.3768L12.0008 10.3773L11.1002 5.72993C11.1002 5.72993 10.9913 4.79945 9.8305 4.79945H5.612L5.5625 4.97444C5.5625 4.97444 6.85252 5.24424 8.36227 6.15564L10.6877 15.1339H13.4764L17.7348 4.79945H14.8542ZM19.7825 15.1337H17.1059L18.7787 4.79945H21.4556L19.7825 15.1337ZM32.9616 11.4781L34.3679 7.61078L35.1591 11.4781H32.9616Z" fill="#2566AF"/>
<path d="M12.0008 10.3771L11.1002 5.72965C11.1002 5.72965 10.9913 4.79918 9.8305 4.79918H5.612L5.5625 4.97416C5.5625 4.97416 7.59008 5.39655 9.53487 6.97914C11.3944 8.49178 12.0008 10.3771 12.0008 10.3771Z" fill="#E6A540"/>
</svg>
