<svg width="20" height="20" viewBox="0 0 20 20" fill="none" xmlns="http://www.w3.org/2000/svg">
<path fill-rule="evenodd" clip-rule="evenodd" d="M9.19101 12.5016C9.65092 12.4842 10.0378 12.843 10.0552 13.3029C10.0943 14.3397 10.1493 15.0965 10.2034 15.639C10.2566 16.1734 10.5792 16.4949 11.0288 16.5498C11.559 16.6146 12.307 16.6677 13.3333 16.6677C14.3597 16.6677 15.1077 16.6146 15.6379 16.5498C16.0873 16.4949 16.4101 16.1732 16.4633 15.6388C16.5636 14.6317 16.6667 12.8917 16.6667 10.001C16.6667 7.11034 16.5636 5.37036 16.4633 4.36325C16.4101 3.82879 16.0873 3.50715 15.6379 3.45221C15.1077 3.3874 14.3597 3.33435 13.3333 3.33435C12.307 3.33435 11.559 3.38739 11.0288 3.45221C10.5792 3.50717 10.2566 3.82867 10.2034 4.36299C10.1493 4.90556 10.0943 5.6623 10.0552 6.69912C10.0378 7.15903 9.65092 7.51779 9.19101 7.50042C8.7311 7.48306 8.37234 7.09616 8.3897 6.63625C8.42988 5.57205 8.48684 4.78054 8.54489 4.19778C8.66694 2.97264 9.52111 1.95744 10.8266 1.79786C11.4342 1.72357 12.2507 1.66768 13.3333 1.66768C14.416 1.66768 15.2325 1.72358 15.8401 1.79786C17.1457 1.95746 17.9997 2.97314 18.1218 4.19804C18.2292 5.27658 18.3333 7.07474 18.3333 10.001C18.3333 12.9273 18.2292 14.7254 18.1218 15.804C17.9997 17.0289 17.1457 18.0446 15.8401 18.2042C15.2325 18.2785 14.416 18.3344 13.3333 18.3344C12.2507 18.3344 11.4343 18.2785 10.8266 18.2042C9.52111 18.0446 8.66694 17.0294 8.54489 15.8043C8.48684 15.2215 8.42988 14.43 8.3897 13.3658C8.37234 12.9059 8.7311 12.519 9.19101 12.5016Z" fill="#777E91"/>
<path fill-rule="evenodd" clip-rule="evenodd" d="M6.00594 12.3284C6.33138 12.6538 6.33138 13.1815 6.00594 13.5069C5.68051 13.8323 5.15287 13.8323 4.82743 13.5069L1.91076 10.5902C1.58533 10.2648 1.58533 9.73716 1.91076 9.41172L4.82743 6.49505C5.15287 6.16962 5.68051 6.16962 6.00594 6.49505C6.33138 6.82049 6.33138 7.34813 6.00594 7.67357L4.51186 9.16764H12.5C12.9603 9.16764 13.3334 9.54074 13.3334 10.001C13.3334 10.4612 12.9603 10.8343 12.5 10.8343L4.51186 10.8343L6.00594 12.3284Z" fill="#777E91"/>
</svg>
