<svg width="20" height="20" viewBox="0 0 20 20" fill="none" xmlns="http://www.w3.org/2000/svg">
<circle cx="2.5" cy="2.5" r="2.5" transform="matrix(-1 0 0 1 12.5 7.50098)" stroke="#777E90" stroke-width="1.25"/>
<path d="M13.7501 4.11552L13.4376 4.65678L13.7501 4.11552ZM13.7501 15.8861L13.4376 15.3448L13.7501 15.8861ZM6.25012 15.8861L5.93762 16.4273H5.93762L6.25012 15.8861ZM6.25012 4.11552L6.56262 4.65679L6.25012 4.11552ZM2.42208 8.07054L2.02465 8.5529L2.42208 8.07054ZM4.42664 15.6178L4.28315 15.0095L4.42664 15.6178ZM3.66923 15.4201L4.14385 15.0135L3.66923 15.4201ZM7.94948 18.0801L7.79617 18.686L7.94948 18.0801ZM7.43596 17.4883L8.04488 17.3475L7.43596 17.4883ZM12.5643 17.4883L11.9554 17.3475L12.5643 17.4883ZM12.0508 18.0801L12.2041 18.686L12.0508 18.0801ZM16.3309 15.4201L16.8055 15.8267L16.3309 15.4201ZM15.5735 15.6178L15.717 15.0095L15.5735 15.6178ZM17.8698 7.25335L18.4599 7.04735L17.8698 7.25335ZM17.578 8.07054L17.1806 7.58818L17.578 8.07054ZM16.3307 4.58152L16.8053 4.17485L16.3307 4.58152ZM4.42679 4.38383L4.57024 3.77552L4.42679 4.38383ZM17.578 11.9313L17.1806 12.4137L17.578 11.9313ZM12.5643 2.51352L11.9554 2.65442L12.5643 2.51352ZM12.0508 1.92183L11.8975 2.52773L12.0508 1.92183ZM11.9554 2.65442C12.1436 3.46764 12.6566 4.20587 13.4376 4.65678L14.0626 3.57425C13.594 3.30368 13.2866 2.86244 13.1733 2.37262L11.9554 2.65442ZM13.4376 4.65678C14.1551 5.071 14.9699 5.16827 15.7168 4.99217L15.43 3.77553C14.9807 3.88147 14.4935 3.82302 14.0626 3.57425L13.4376 4.65678ZM18.4599 7.04735C18.0886 5.98374 17.5227 5.01207 16.8053 4.17485L15.8561 4.98819C16.474 5.7093 16.9607 6.54534 17.2797 7.45935L18.4599 7.04735ZM17.2917 10.0009C17.2917 9.41814 17.5569 8.8978 17.9755 8.5529L17.1806 7.58818C16.4862 8.16034 16.0417 9.02899 16.0417 10.0009H17.2917ZM17.9755 11.449C17.5569 11.1041 17.2917 10.5837 17.2917 10.0009H16.0417C16.0417 10.9729 16.4862 11.8415 17.1806 12.4137L17.9755 11.449ZM16.8055 15.8267C17.5228 14.9896 18.0886 14.018 18.4599 12.9545L17.2797 12.5425C16.9607 13.4564 16.4741 14.2924 15.8563 15.0134L16.8055 15.8267ZM14.0626 16.4273C14.4935 16.1785 14.9807 16.1201 15.4301 16.2261L15.717 15.0095C14.9701 14.8333 14.1551 14.9305 13.4376 15.3448L14.0626 16.4273ZM13.1732 17.6291C13.2865 17.1392 13.5939 16.6979 14.0626 16.4273L13.4376 15.3448C12.6565 15.7958 12.1435 16.5341 11.9554 17.3475L13.1732 17.6291ZM10.0001 18.9593C10.7598 18.9593 11.4983 18.8645 12.2041 18.686L11.8975 17.4742C11.2911 17.6276 10.6556 17.7093 10.0001 17.7093V18.9593ZM7.79617 18.686C8.50188 18.8646 9.24036 18.9593 10.0001 18.9593V17.7093C9.34459 17.7093 8.70909 17.6276 8.1028 17.4742L7.79617 18.686ZM5.93762 16.4273C6.40633 16.6979 6.71373 17.1393 6.82703 17.6291L8.04488 17.3475C7.85677 16.5341 7.34373 15.7958 6.56262 15.3448L5.93762 16.4273ZM4.57013 16.2261C5.01947 16.1201 5.50669 16.1785 5.93762 16.4273L6.56262 15.3448C5.84508 14.9305 5.03012 14.8333 4.28315 15.0095L4.57013 16.2261ZM1.54023 12.9545C1.9115 14.018 2.47733 14.9896 3.19462 15.8268L4.14385 15.0135C3.52604 14.2924 3.03944 13.4564 2.72039 12.5425L1.54023 12.9545ZM2.7084 10.0009C2.7084 10.5837 2.44324 11.1041 2.02465 11.449L2.81952 12.4137C3.51394 11.8415 3.9584 10.9729 3.9584 10.0009H2.7084ZM2.02465 8.5529C2.44324 8.8978 2.7084 9.41814 2.7084 10.0009H3.9584C3.9584 9.029 3.51394 8.16034 2.81952 7.58818L2.02465 8.5529ZM3.19486 4.17482C2.47746 5.01205 1.91155 5.98373 1.54023 7.04735L2.72039 7.45934C3.03947 6.54533 3.52615 5.70928 4.14405 4.98816L3.19486 4.17482ZM5.93762 3.57425C5.50672 3.82303 5.01955 3.88147 4.57024 3.77552L4.28334 4.99215C5.03026 5.16828 5.84515 5.07102 6.56262 4.65679L5.93762 3.57425ZM6.82699 2.37261C6.71365 2.86243 6.40627 3.30368 5.93762 3.57425L6.56262 4.65679C7.34364 4.20586 7.85665 3.46762 8.04482 2.65439L6.82699 2.37261ZM10.0001 1.0426C9.24033 1.0426 8.50183 1.13732 7.7961 1.31589L8.10273 2.5277C8.70904 2.37428 9.34457 2.2926 10.0001 2.2926V1.0426ZM12.2042 1.31593C11.4984 1.13733 10.7599 1.0426 10.0001 1.0426V2.2926C10.6556 2.2926 11.2912 2.37429 11.8975 2.52773L12.2042 1.31593ZM8.04482 2.65439C8.05782 2.59817 8.07987 2.55851 8.09697 2.53771C8.11166 2.51984 8.11427 2.52478 8.10273 2.5277L7.7961 1.31589C7.22009 1.46165 6.92267 1.9591 6.82699 2.37261L8.04482 2.65439ZM2.81952 7.58818C2.76878 7.54638 2.73929 7.50115 2.72746 7.4709C2.71751 7.44547 2.72483 7.4466 2.72039 7.45934L1.54023 7.04735C1.31856 7.68233 1.66202 8.25412 2.02465 8.5529L2.81952 7.58818ZM4.28315 15.0095C4.22713 15.0227 4.1819 15.0205 4.15568 15.0144C4.13314 15.0092 4.13624 15.0046 4.14385 15.0135L3.19462 15.8268C3.5805 16.2771 4.15715 16.3235 4.57013 16.2261L4.28315 15.0095ZM8.1028 17.4742C8.11434 17.4771 8.11172 17.482 8.09703 17.4642C8.07993 17.4434 8.05789 17.4037 8.04488 17.3475L6.82703 17.6291C6.92268 18.0427 7.2201 18.5402 7.79617 18.686L8.1028 17.4742ZM11.9554 17.3475C11.9424 17.4037 11.9203 17.4433 11.9032 17.4642C11.8885 17.482 11.8859 17.4771 11.8975 17.4742L12.2041 18.686C12.7802 18.5402 13.0776 18.0427 13.1732 17.6291L11.9554 17.3475ZM15.8563 15.0134C15.8639 15.0046 15.867 15.0091 15.8445 15.0144C15.8183 15.0205 15.773 15.0227 15.717 15.0095L15.4301 16.2261C15.843 16.3235 16.4197 16.2771 16.8055 15.8267L15.8563 15.0134ZM17.2797 7.45935C17.2753 7.4466 17.2826 7.44547 17.2727 7.4709C17.2608 7.50115 17.2313 7.54638 17.1806 7.58818L17.9755 8.5529C18.3381 8.25412 18.6816 7.68233 18.4599 7.04735L17.2797 7.45935ZM2.72039 12.5425C2.72483 12.5553 2.71751 12.5564 2.72746 12.531C2.73929 12.5007 2.76878 12.4555 2.81952 12.4137L2.02465 11.449C1.66202 11.7478 1.31856 12.3195 1.54023 12.9545L2.72039 12.5425ZM15.7168 4.99217C15.7728 4.97896 15.8181 4.98113 15.8443 4.98724C15.8668 4.99249 15.8637 4.99707 15.8561 4.98819L16.8053 4.17485C16.4194 3.72455 15.8429 3.67817 15.43 3.77553L15.7168 4.99217ZM4.14405 4.98816C4.13644 4.99705 4.13334 4.99246 4.15589 4.98721C4.1821 4.98111 4.22732 4.97894 4.28334 4.99215L4.57024 3.77552C4.15729 3.67814 3.58072 3.72451 3.19486 4.17482L4.14405 4.98816ZM17.1806 12.4137C17.2313 12.4555 17.2608 12.5007 17.2727 12.531C17.2826 12.5564 17.2753 12.5553 17.2797 12.5425L18.4599 12.9545C18.6816 12.3195 18.3381 11.7478 17.9755 11.449L17.1806 12.4137ZM13.1733 2.37262C13.0776 1.95912 12.7802 1.46169 12.2042 1.31593L11.8975 2.52773C11.886 2.52481 11.8886 2.51987 11.9033 2.53774C11.9204 2.55854 11.9424 2.59819 11.9554 2.65442L13.1733 2.37262Z" fill="#777E90"/>
</svg>
