<svg width="8" height="6" viewBox="0 0 8 6" fill="none" xmlns="http://www.w3.org/2000/svg">
<path fill-rule="evenodd" clip-rule="evenodd" d="M7.15653 1.18495C6.89601 0.925979 6.47526 0.925979 6.21474 1.18495L3.81685 3.54945L1.45235 1.18495C1.19183 0.925979 0.771083 0.925979 0.510563 1.18495C0.384114 1.31037 0.312988 1.48109 0.312988 1.65919C0.312988 1.83729 0.384114 2.00801 0.510563 2.13342L3.34261 4.96548C3.46803 5.09192 3.63875 5.16305 3.81685 5.16305C3.99495 5.16305 4.16567 5.09192 4.29108 4.96548L7.15653 2.13342C7.28298 2.00801 7.35411 1.83729 7.35411 1.65919C7.35411 1.48109 7.28298 1.31037 7.15653 1.18495Z" fill="#726BEA"/>
</svg>
