<svg width="20" height="20" viewBox="0 0 20 20" fill="none" xmlns="http://www.w3.org/2000/svg">
<path fill-rule="evenodd" clip-rule="evenodd" d="M10 3.33427C8.37316 3.33427 6.87349 3.46844 5.66978 3.62742C4.58646 3.77049 3.76957 4.58737 3.6265 5.67069C3.46752 6.8744 3.33335 8.37408 3.33335 10.0009C3.33335 11.6278 3.46752 13.1275 3.6265 14.3312C3.76957 15.4145 4.58646 16.2314 5.66978 16.3745C6.87349 16.5334 8.37316 16.6676 10 16.6676C11.6269 16.6676 13.1266 16.5334 14.3303 16.3745C15.4136 16.2314 16.2305 15.4145 16.3735 14.3312C16.5325 13.1275 16.6667 11.6278 16.6667 10.0009C16.6667 8.37408 16.5325 6.8744 16.3735 5.67069C16.2305 4.58737 15.4136 3.77049 14.3303 3.62742C13.1266 3.46844 11.6269 3.33427 10 3.33427ZM5.45155 1.9751C3.62089 2.21687 2.21596 3.62181 1.97418 5.45247C1.80797 6.711 1.66669 8.28533 1.66669 10.0009C1.66669 11.7165 1.80797 13.2909 1.97418 14.5494C2.21596 16.3801 3.62089 17.785 5.45155 18.0268C6.71009 18.193 8.28442 18.3343 10 18.3343C11.7156 18.3343 13.29 18.193 14.5485 18.0268C16.3792 17.785 17.7841 16.3801 18.0259 14.5494C18.1921 13.2909 18.3334 11.7165 18.3334 10.0009C18.3334 8.28533 18.1921 6.711 18.0259 5.45247C17.7841 3.62181 16.3792 2.21687 14.5485 1.9751C13.29 1.80888 11.7156 1.6676 10 1.6676C8.28442 1.6676 6.71009 1.80888 5.45155 1.9751Z" fill="#777E91"/>
<path d="M7.50002 9.16768C8.42049 9.16768 9.16669 8.42149 9.16669 7.50102C9.16669 6.58054 8.42049 5.83435 7.50002 5.83435C6.57955 5.83435 5.83335 6.58054 5.83335 7.50102C5.83335 8.42149 6.57955 9.16768 7.50002 9.16768Z" fill="#777E91"/>
<path d="M15.1011 10.5904L16.5964 12.0857C16.5448 12.8659 16.4694 13.5898 16.3864 14.2327L13.9226 11.7689C13.5972 11.4435 13.0695 11.4435 12.7441 11.7689L10.9345 13.5786C9.95814 14.5549 8.37523 14.5549 7.39892 13.5786L7.25594 13.4356C6.9305 13.1102 6.40287 13.1102 6.07743 13.4356L4.06987 15.4432C3.83731 15.1278 3.68171 14.7494 3.62648 14.3313C3.59637 14.1032 3.56714 13.8646 3.53955 13.6165L4.89892 12.2571C5.87523 11.2808 7.45814 11.2808 8.43445 12.2571L8.57743 12.4001C8.90286 12.7255 9.4305 12.7255 9.75594 12.4001L11.5656 10.5904C12.5419 9.61412 14.1248 9.61412 15.1011 10.5904Z" fill="#777E91"/>
</svg>
