<svg width="20" height="20" viewBox="0 0 20 20" fill="none" xmlns="http://www.w3.org/2000/svg">
<g clip-path="url(#clip0_211_6607)">
<path fill-rule="evenodd" clip-rule="evenodd" d="M10 10.8343C6.77834 10.8343 4.16667 13.4459 4.16667 16.6676V18.3343C4.16667 18.7945 3.79357 19.1676 3.33333 19.1676C2.8731 19.1676 2.5 18.7945 2.5 18.3343V16.6676C2.5 12.5255 5.85786 9.1676 10 9.1676C14.1421 9.1676 17.5 12.5255 17.5 16.6676V18.3343C17.5 18.7945 17.1269 19.1676 16.6667 19.1676C16.2064 19.1676 15.8333 18.7945 15.8333 18.3343V16.6676C15.8333 13.4459 13.2217 10.8343 10 10.8343Z" fill="#777E91"/>
<path fill-rule="evenodd" clip-rule="evenodd" d="M10 9.16768C11.8409 9.16768 13.3333 7.6753 13.3333 5.83435C13.3333 3.9934 11.8409 2.50102 10 2.50102C8.15905 2.50102 6.66667 3.9934 6.66667 5.83435C6.66667 7.6753 8.15905 9.16768 10 9.16768ZM10 10.8344C12.7614 10.8344 15 8.59577 15 5.83435C15 3.07293 12.7614 0.834351 10 0.834351C7.23858 0.834351 5 3.07293 5 5.83435C5 8.59577 7.23858 10.8344 10 10.8344Z" fill="#777E91"/>
</g>
<defs>
<clipPath id="clip0_211_6607">
<rect width="20" height="20" fill="white" transform="translate(0 0.000976562)"/>
</clipPath>
</defs>
</svg>
