<svg width="20" height="20" viewBox="0 0 20 20" fill="none" xmlns="http://www.w3.org/2000/svg">
<path fill-rule="evenodd" clip-rule="evenodd" d="M0 10C0 4.47715 4.47715 0 10 0C15.5228 0 20 4.47715 20 10C20 15.5228 15.5228 20 10 20C4.47715 20 0 15.5228 0 10ZM13.7071 8.7071C14.0976 8.3166 14.0976 7.68342 13.7071 7.29289C13.3166 6.90237 12.6834 6.90237 12.2929 7.29289L9 10.5858L7.70711 9.2929C7.31658 8.9024 6.68342 8.9024 6.29289 9.2929C5.90237 9.6834 5.90237 10.3166 6.29289 10.7071L8.2929 12.7071C8.6834 13.0976 9.3166 13.0976 9.7071 12.7071L13.7071 8.7071Z" fill="#6F94FC"/>
</svg>
