<svg width="65" height="65" viewBox="0 0 65 65" fill="none" xmlns="http://www.w3.org/2000/svg">
<path d="M52.7577 65H12.2423C9.92082 65 7.97464 63.2455 7.73491 60.9364L2.80396 13.4503H62.1961L57.2652 60.9364C57.0254 63.2455 55.0793 65 52.7577 65Z" fill="url(#paint0_linear_297_735)"/>
<path d="M62.1961 13.4499L60.6985 27.8748L57.265 60.9369C57.0254 63.245 55.0792 65 52.7571 65H32.5V13.4499H62.1961Z" fill="url(#paint1_linear_297_735)"/>
<path d="M62.1961 13.4499L57.265 60.9369C57.0254 63.245 55.0793 65 52.7571 65H41.4242L4.3015 27.8773L2.80396 13.4499H62.1961Z" fill="url(#paint2_linear_297_735)"/>
<path d="M6.40259 48.1051L7.73496 60.9364C7.97482 63.2455 9.92087 65 12.2424 65H52.7577C55.0792 65 57.0254 63.2455 57.2651 60.9364L58.5975 48.1051H6.40259Z" fill="url(#paint3_linear_297_735)"/>
<path d="M32.5001 11.4169C32.5001 16.6665 8.92163 16.6665 8.92163 11.4169C8.92163 6.16735 12.9765 0 17.9784 0C22.9804 0 32.5001 6.16735 32.5001 11.4169Z" fill="url(#paint4_linear_297_735)"/>
<path d="M32.5001 11.4169C32.5001 16.6665 8.92163 16.6665 8.92163 11.4169C8.92163 6.16735 12.9765 0 17.9784 0C22.9804 0 32.5001 6.16735 32.5001 11.4169Z" fill="url(#paint5_linear_297_735)"/>
<path opacity="0.2" d="M25.1882 12.3647C25.1882 8.37875 17.9601 3.69608 14.1623 3.69608C12.9094 3.69608 11.736 4.20766 10.7244 5.03367C9.59228 6.99553 8.92163 9.28212 8.92163 11.4169C8.92163 13.6845 13.3212 14.9724 18.3194 15.281C22.0028 15.0181 25.1882 14.046 25.1882 12.3647Z" fill="#FEFEFE"/>
<path d="M32.5 11.4169C32.5 16.6665 56.0784 16.6665 56.0784 11.4169C56.0784 6.16735 52.0236 0 47.0216 0C42.0197 0 32.5 6.16735 32.5 11.4169Z" fill="url(#paint6_linear_297_735)"/>
<path d="M32.5 11.4169C32.5 16.6665 56.0784 16.6665 56.0784 11.4169C56.0784 6.16735 52.0236 0 47.0216 0C42.0197 0 32.5 6.16735 32.5 11.4169Z" fill="url(#paint7_linear_297_735)"/>
<path opacity="0.2" d="M39.8118 12.3647C39.8118 8.37875 47.0399 3.69608 50.8377 3.69608C52.0905 3.69608 53.264 4.20766 54.2755 5.03367C55.4077 6.99553 56.0783 9.28212 56.0783 11.4169C56.0783 13.6845 51.6787 14.9724 46.6806 15.281C42.9972 15.0181 39.8118 14.046 39.8118 12.3647Z" fill="#FEFEFE"/>
<path d="M60.5499 27.877H4.45008C1.99244 27.877 0 25.8846 0 23.4269V15.4323C0 12.9745 1.99244 10.9821 4.45008 10.9821H60.5498C63.0076 10.9821 64.9999 12.9745 64.9999 15.4321V23.4268C65 25.8846 63.0076 27.877 60.5499 27.877Z" fill="url(#paint8_linear_297_735)"/>
<path d="M65 15.4318V23.4268C65 25.8343 63.0882 27.7958 60.6985 27.8748C60.6488 27.8761 60.5991 27.8774 60.5494 27.8774H32.5V10.9825H60.5494C63.0079 10.9825 65 12.9745 65 15.4318Z" fill="url(#paint9_linear_297_735)"/>
<path d="M0 19.4295V23.4269C0 25.8846 1.99244 27.877 4.45008 27.877H60.5498C63.0076 27.877 64.9999 25.8845 64.9999 23.4269V19.4295H0Z" fill="url(#paint10_linear_297_735)"/>
<path d="M36.7622 28.3935H28.2376C27.4166 28.3935 26.7512 27.7281 26.7512 26.9072V11.9518C26.7512 11.1309 27.4166 10.4655 28.2376 10.4655H36.7622C37.5832 10.4655 38.2486 11.1309 38.2486 11.9518V26.9072C38.2486 27.7281 37.5832 28.3935 36.7622 28.3935Z" fill="url(#paint11_linear_297_735)"/>
<path d="M44.2891 23.6533L20.7107 41.0065L44.7042 65H52.7576C55.0791 65 57.0253 63.2455 57.265 60.9364L59.5516 38.9158L44.2891 23.6533Z" fill="url(#paint12_linear_297_735)"/>
<path d="M36.7622 65H28.2376C27.4166 65 26.7512 64.3346 26.7512 63.5137V25.5501C26.7512 24.7292 27.4166 24.0638 28.2376 24.0638H36.7622C37.5832 24.0638 38.2486 24.7292 38.2486 25.5501V63.5135C38.2486 64.3346 37.5832 65 36.7622 65Z" fill="url(#paint13_linear_297_735)"/>
<path d="M36.7622 24.0638H28.2376C27.4166 24.0638 26.7512 24.7292 26.7512 25.5501V50.3272L38.2486 61.8245V25.5501C38.2486 24.7293 37.5832 24.0638 36.7622 24.0638Z" fill="url(#paint14_linear_297_735)"/>
<path d="M38.248 25.5501V58.5433L26.752 47.0473V25.5501C26.752 24.7293 27.4172 24.064 28.238 24.064H36.762C37.5827 24.064 38.248 24.7293 38.248 25.5501Z" fill="url(#paint15_linear_297_735)"/>
<path d="M46.5483 33.8543L45.218 35.2082C44.6954 35.7401 44.4529 36.4864 44.5631 37.2238L44.8436 39.1004C45.0352 40.3822 44.1638 41.581 42.8854 41.7941L41.0148 42.106C40.278 42.2288 39.6419 42.6912 39.2976 43.3541L38.4253 45.034C37.8275 46.1856 36.4159 46.6441 35.2554 46.0638L33.5621 45.2172C32.8935 44.8829 32.1064 44.8829 31.4377 45.2172L29.7444 46.0638C28.5838 46.6441 27.1724 46.1857 26.5746 45.034L25.7023 43.3541C25.358 42.6911 24.7219 42.2288 23.9851 42.106L22.1147 41.7941C20.8362 41.581 19.9648 40.3822 20.1564 39.1004L20.4369 37.224C20.5471 36.4865 20.3046 35.7402 19.7821 35.2083L18.4517 33.8544C17.5438 32.9304 17.5438 31.4493 18.4517 30.5253L19.7821 29.1714C20.3046 28.6395 20.5471 27.8932 20.4369 27.1557L20.1564 25.2791C19.9648 23.9974 20.8362 22.7986 22.1147 22.5855L23.9853 22.2736C24.7221 22.1507 25.3582 21.6883 25.7024 21.0255L26.5747 19.3457C27.1726 18.1941 28.5841 17.7356 29.7446 18.3158L31.438 19.1625C32.1066 19.4968 32.8936 19.4968 33.5623 19.1625L35.2556 18.3158C36.4162 17.7356 37.8276 18.194 38.4256 19.3457L39.2979 21.0256C39.6421 21.6886 40.2782 22.1508 41.015 22.2737L42.8856 22.5856C44.1641 22.7987 45.0354 23.9975 44.8439 25.2793L44.5634 27.1557C44.4531 27.8932 44.6957 28.6395 45.2182 29.1714L46.5485 30.5253C47.4563 31.4492 47.4563 32.9303 46.5483 33.8543Z" fill="url(#paint16_linear_297_735)"/>
<path d="M32.4999 42.722C38.3167 42.722 43.0321 38.0065 43.0321 32.1898C43.0321 26.373 38.3167 21.6576 32.4999 21.6576C26.6832 21.6576 21.9678 26.373 21.9678 32.1898C21.9678 38.0065 26.6832 42.722 32.4999 42.722Z" fill="url(#paint17_linear_297_735)"/>
<path d="M32.5001 41.1736C37.4617 41.1736 41.4839 37.1514 41.4839 32.1898C41.4839 27.2282 37.4617 23.206 32.5001 23.206C27.5385 23.206 23.5164 27.2282 23.5164 32.1898C23.5164 37.1514 27.5385 41.1736 32.5001 41.1736Z" fill="url(#paint18_linear_297_735)"/>
<path d="M19.7821 35.2082C20.3046 35.74 20.5471 36.4864 20.4369 37.2238L20.1564 39.1003C19.9648 40.3821 20.8362 41.5809 22.1147 41.794L23.9851 42.1058C24.7219 42.2287 25.358 42.6911 25.7023 43.354L26.5746 45.0339C27.1724 46.1854 28.5839 46.644 29.7444 46.0636L31.4377 45.2169C32.1063 44.8826 32.8933 44.8826 33.5621 45.2169L35.2554 46.0636C36.4159 46.6439 37.8273 46.1854 38.4253 45.0338L39.2976 43.354C39.6418 42.691 40.278 42.2287 41.0148 42.1058L42.8853 41.794C44.1638 41.5809 45.0352 40.3821 44.8436 39.1003L44.5631 37.2237C44.4529 36.4863 44.6954 35.7399 45.218 35.2081L46.5483 33.8541C47.0023 33.3921 47.2293 32.7908 47.2293 32.1896H17.7708C17.7708 32.791 17.9977 33.3921 18.4517 33.8541L19.7821 35.2082Z" fill="url(#paint19_linear_297_735)"/>
<path d="M41.0148 42.1058L42.8854 41.794C44.1639 41.5809 45.0353 40.3821 44.8437 39.1003L44.5632 37.2237C44.453 36.4863 44.6955 35.7399 45.218 35.2081L45.5355 34.885C45.5684 34.6908 45.6334 34.5008 45.7328 34.3247L36.7343 25.3262C36.5506 24.9896 36.1532 24.785 35.7842 24.785C35.4627 24.785 35.1767 24.928 35.0338 25.2317L28.762 38.1148C28.7083 38.222 28.6726 38.3472 28.6726 38.4544C28.6726 38.7633 28.861 39.0978 29.178 39.2748L36.2153 46.3121C37.1096 46.3502 37.9866 45.879 38.4254 45.0339L39.2977 43.3541C39.6419 42.6911 40.278 42.2287 41.0148 42.1058Z" fill="url(#paint20_linear_297_735)"/>
<path d="M44.7233 40.2725L30.8648 26.4141C30.3901 25.7761 29.5692 25.5177 28.619 25.5177C27.1002 25.5177 25.9387 26.161 25.9387 27.9299V30.4672C25.9387 31.3798 26.2484 31.9922 26.7564 32.3719L38.7649 44.3803L39.2977 43.354C39.642 42.691 40.2781 42.2287 41.0149 42.1059L42.8855 41.794C43.756 41.6489 44.4373 41.0466 44.7233 40.2725Z" fill="url(#paint21_linear_297_735)"/>
<path d="M36.8053 31.2533C35.2866 31.2533 34.125 31.8965 34.125 33.6655V36.2028C34.125 37.1155 34.4347 37.7279 34.9426 38.1075L39.6668 42.8317C40.02 42.452 40.4917 42.193 41.0147 42.1058L42.8853 41.794C44.1638 41.5809 45.0352 40.3821 44.8436 39.1003L44.6401 37.7385L39.0511 32.1496C38.5764 31.5116 37.7554 31.2533 36.8053 31.2533Z" fill="url(#paint22_linear_297_735)"/>
<path d="M25.8662 30.3948V27.8575C25.8662 26.0885 27.0277 25.4452 28.5465 25.4452C30.0475 25.4452 31.2268 26.0885 31.2268 27.8575V30.3948C31.2268 32.1638 30.0474 32.807 28.5465 32.807C27.0277 32.807 25.8662 32.1638 25.8662 30.3948ZM29.4399 27.8575C29.4399 27.2679 29.1004 26.9997 28.5465 26.9997C27.9926 26.9997 27.671 27.2678 27.671 27.8575V30.3948C27.671 30.9844 27.9926 31.2525 28.5465 31.2525C29.1005 31.2525 29.4399 30.9845 29.4399 30.3948V27.8575ZM36.7659 25.6596C36.7659 25.7668 36.7481 25.8919 36.6944 25.9991L30.4047 38.8822C30.2796 39.1503 29.9402 39.329 29.6007 39.329C28.9931 39.329 28.6 38.8287 28.6 38.3819C28.6 38.2747 28.6358 38.1495 28.6894 38.0423L34.9611 25.1592C35.1041 24.8555 35.39 24.7125 35.7115 24.7125C36.2119 24.7126 36.7659 25.0878 36.7659 25.6596ZM34.0678 36.1484V33.6111C34.0678 31.8421 35.2293 31.1989 36.7481 31.1989C38.2491 31.1989 39.4284 31.8421 39.4284 33.6111V36.1484C39.4284 37.9174 38.2491 38.5607 36.7481 38.5607C35.2293 38.5606 34.0678 37.9173 34.0678 36.1484ZM37.6414 33.6111C37.6414 33.0215 37.3019 32.7534 36.748 32.7534C36.1941 32.7534 35.8724 33.0214 35.8724 33.6111V36.1484C35.8724 36.7381 36.1941 37.006 36.748 37.006C37.3019 37.006 37.6414 36.738 37.6414 36.1484V33.6111Z" fill="url(#paint23_linear_297_735)"/>
<defs>
<linearGradient id="paint0_linear_297_735" x1="19.3022" y1="22.2468" x2="57.7008" y2="60.6453" gradientUnits="userSpaceOnUse">
<stop stop-color="#FEE45A"/>
<stop offset="1" stop-color="#FEA613"/>
</linearGradient>
<linearGradient id="paint1_linear_297_735" x1="48.4314" y1="39.2249" x2="36.3175" y2="39.2249" gradientUnits="userSpaceOnUse">
<stop stop-color="#FEA613" stop-opacity="0"/>
<stop offset="1" stop-color="#E94444"/>
</linearGradient>
<linearGradient id="paint2_linear_297_735" x1="32.5" y1="47.7941" x2="32.5" y2="18.5179" gradientUnits="userSpaceOnUse">
<stop stop-color="#FEA613" stop-opacity="0"/>
<stop offset="1" stop-color="#E94444"/>
</linearGradient>
<linearGradient id="paint3_linear_297_735" x1="32.5001" y1="55.014" x2="32.5001" y2="66.1033" gradientUnits="userSpaceOnUse">
<stop stop-color="#FEA613" stop-opacity="0"/>
<stop offset="1" stop-color="#E94444"/>
</linearGradient>
<linearGradient id="paint4_linear_297_735" x1="15.5205" y1="1.37915" x2="23.7661" y2="16.6209" gradientUnits="userSpaceOnUse">
<stop stop-color="#FEDBBD"/>
<stop offset="1" stop-color="#FD3581"/>
</linearGradient>
<linearGradient id="paint5_linear_297_735" x1="41.1153" y1="2.55902" x2="37.4308" y2="26.3957" gradientUnits="userSpaceOnUse">
<stop stop-color="#FF1CF7"/>
<stop offset="1" stop-color="#00F0FF"/>
</linearGradient>
<linearGradient id="paint6_linear_297_735" x1="49.4795" y1="1.37915" x2="41.234" y2="16.6209" gradientUnits="userSpaceOnUse">
<stop stop-color="#FEDBBD"/>
<stop offset="1" stop-color="#FD3581"/>
</linearGradient>
<linearGradient id="paint7_linear_297_735" x1="64.6936" y1="2.55902" x2="61.0091" y2="26.3957" gradientUnits="userSpaceOnUse">
<stop stop-color="#FF1CF7"/>
<stop offset="1" stop-color="#00F0FF"/>
</linearGradient>
<linearGradient id="paint8_linear_297_735" x1="26.3406" y1="4.544" x2="38.5757" y2="34.1126" gradientUnits="userSpaceOnUse">
<stop stop-color="#FEE45A"/>
<stop offset="1" stop-color="#FEA613"/>
</linearGradient>
<linearGradient id="paint9_linear_297_735" x1="47.0294" y1="19.4299" x2="34.666" y2="19.4299" gradientUnits="userSpaceOnUse">
<stop stop-color="#FEA613" stop-opacity="0"/>
<stop offset="1" stop-color="#E94444"/>
</linearGradient>
<linearGradient id="paint10_linear_297_735" x1="32.5" y1="21.6667" x2="32.5" y2="31.501" gradientUnits="userSpaceOnUse">
<stop stop-color="#FEA613" stop-opacity="0"/>
<stop offset="1" stop-color="#E94444"/>
</linearGradient>
<linearGradient id="paint11_linear_297_735" x1="28.9657" y1="15.8953" x2="39.2483" y2="26.1781" gradientUnits="userSpaceOnUse">
<stop stop-color="#FEDBBD"/>
<stop offset="1" stop-color="#FD3581"/>
</linearGradient>
<linearGradient id="paint12_linear_297_735" x1="51.2353" y1="51.0653" x2="31.594" y2="31.4239" gradientUnits="userSpaceOnUse">
<stop stop-color="#FEA613" stop-opacity="0"/>
<stop offset="1" stop-color="#E94444"/>
</linearGradient>
<linearGradient id="paint13_linear_297_735" x1="10.0342" y1="30.6058" x2="42.7236" y2="50.8695" gradientUnits="userSpaceOnUse">
<stop stop-color="#FEDBBD"/>
<stop offset="1" stop-color="#FD3581"/>
</linearGradient>
<linearGradient id="paint14_linear_297_735" x1="32.4999" y1="53.0196" x2="32.4999" y2="20.7567" gradientUnits="userSpaceOnUse">
<stop stop-color="#FE646F" stop-opacity="0"/>
<stop offset="0.2966" stop-color="#FC616A" stop-opacity="0.297"/>
<stop offset="0.6214" stop-color="#F5575D" stop-opacity="0.621"/>
<stop offset="0.9585" stop-color="#EB4747" stop-opacity="0.959"/>
<stop offset="1" stop-color="#E94444"/>
</linearGradient>
<linearGradient id="paint15_linear_297_735" x1="39.5763" y1="57.5913" x2="34.6695" y2="42.7432" gradientUnits="userSpaceOnUse">
<stop stop-color="#FE646F" stop-opacity="0"/>
<stop offset="0.2966" stop-color="#FC616A" stop-opacity="0.297"/>
<stop offset="0.6214" stop-color="#F5575D" stop-opacity="0.621"/>
<stop offset="0.9585" stop-color="#EB4747" stop-opacity="0.959"/>
<stop offset="1" stop-color="#E94444"/>
</linearGradient>
<linearGradient id="paint16_linear_297_735" x1="23.5793" y1="23.269" x2="46.2232" y2="45.9128" gradientUnits="userSpaceOnUse">
<stop stop-color="#8AC9FE"/>
<stop offset="1" stop-color="#814AA0"/>
</linearGradient>
<linearGradient id="paint17_linear_297_735" x1="42.4712" y1="42.161" x2="18.5418" y2="18.2316" gradientUnits="userSpaceOnUse">
<stop stop-color="#8AC9FE"/>
<stop offset="1" stop-color="#814AA0"/>
</linearGradient>
<linearGradient id="paint18_linear_297_735" x1="26.171" y1="25.8606" x2="38.5636" y2="38.2533" gradientUnits="userSpaceOnUse">
<stop stop-color="#8AC9FE"/>
<stop offset="1" stop-color="#814AA0"/>
</linearGradient>
<linearGradient id="paint19_linear_297_735" x1="32.5" y1="35.7398" x2="32.5" y2="49.5069" gradientUnits="userSpaceOnUse">
<stop stop-color="#5B3374" stop-opacity="0"/>
<stop offset="1" stop-color="#5B3374"/>
</linearGradient>
<linearGradient id="paint20_linear_297_735" x1="39.0107" y1="37.1656" x2="29.5922" y2="31.8527" gradientUnits="userSpaceOnUse">
<stop stop-color="#5B3374" stop-opacity="0"/>
<stop offset="1" stop-color="#5B3374"/>
</linearGradient>
<linearGradient id="paint21_linear_297_735" x1="32.8946" y1="34.3469" x2="24.7156" y2="30.3879" gradientUnits="userSpaceOnUse">
<stop stop-color="#5B3374" stop-opacity="0"/>
<stop offset="1" stop-color="#5B3374"/>
</linearGradient>
<linearGradient id="paint22_linear_297_735" x1="43.0675" y1="39.5805" x2="33.1469" y2="33.7568" gradientUnits="userSpaceOnUse">
<stop stop-color="#5B3374" stop-opacity="0"/>
<stop offset="1" stop-color="#5B3374"/>
</linearGradient>
<linearGradient id="paint23_linear_297_735" x1="25.8662" y1="32.0208" x2="31.2268" y2="32.0208" gradientUnits="userSpaceOnUse">
<stop stop-color="#EAF6FF"/>
<stop offset="1" stop-color="#B3DAFE"/>
</linearGradient>
</defs>
</svg>
