<svg width="33" height="35" viewBox="0 0 33 35" fill="none" xmlns="http://www.w3.org/2000/svg">
<rect x="1.35474" width="31.0968" height="31.0968" rx="9.32903" fill="url(#paint0_linear_297_772)"/>
<g opacity="0.25" filter="url(#filter0_f_297_772)">
<rect x="6.03955" y="15.5484" width="21.1838" height="13.2399" rx="6.61995" fill="url(#paint1_linear_297_772)"/>
</g>
<rect x="5.39722" y="4.04254" width="22.9491" height="22.9491" rx="9.32903" fill="url(#paint2_linear_297_772)"/>
<g clip-path="url(#clip0_297_772)" filter="url(#filter1_i_297_772)">
<g filter="url(#filter2_i_297_772)">
<path d="M21.3275 22.0228C22.2681 21.6594 23.0117 20.9158 23.3751 19.9753C23.5471 19.5297 23.6675 19.0214 23.7002 18.2778C23.708 18.1036 23.714 17.9574 23.7196 17.8107V12.8426C23.7157 12.7389 23.7114 12.631 23.7058 12.5097C23.6731 11.7661 23.5527 11.2552 23.3807 10.8122C23.2031 10.3422 22.9295 9.92114 22.5717 9.57149C22.2217 9.21583 21.798 8.93972 21.3331 8.76512C20.8876 8.59309 20.3792 8.47267 19.6357 8.43999C18.8865 8.40429 18.6487 8.39612 16.749 8.39612C14.8494 8.39612 14.6112 8.40429 13.865 8.43698C13.1214 8.46966 12.6105 8.59008 12.1675 8.76211C11.6975 8.93972 11.2764 9.21325 10.9264 9.57149C10.5711 9.92157 10.295 10.3452 10.12 10.8097C9.94795 11.2552 9.82753 11.7636 9.79484 12.5071C9.75915 13.2563 9.75098 13.4941 9.75098 15.3942C9.75098 17.2942 9.75915 17.5321 9.79183 18.2782C9.82452 19.0218 9.94494 19.5332 10.1174 19.9757C10.295 20.4458 10.5711 20.8668 10.9264 21.2169C11.2764 21.5721 11.7 21.8486 12.1649 22.0232C12.6105 22.1953 13.1188 22.3157 13.8624 22.3484C14.6086 22.3815 14.8464 22.3897 16.7465 22.3897C18.6465 22.3897 18.8839 22.3815 19.6305 22.3484C20.3741 22.3157 20.885 22.1953 21.328 22.0232L21.3275 22.0228ZM16.7516 21.1317C14.8843 21.1317 14.6602 21.1235 13.9248 21.0909C13.2414 21.0608 12.8724 20.9459 12.6264 20.8505C12.3232 20.7382 12.0471 20.5606 11.8226 20.3284C11.5904 20.1013 11.4123 19.8282 11.3005 19.5246C11.205 19.2786 11.0902 18.9065 11.0601 18.2262C11.0274 17.4882 11.0192 17.2667 11.0192 15.3993C11.0192 13.532 11.0274 13.3079 11.0601 12.5729C11.0902 11.8896 11.205 11.5206 11.3005 11.2746C11.4128 10.9709 11.5904 10.6948 11.8256 10.4708C12.0523 10.2385 12.3258 10.0609 12.629 9.94866C12.875 9.85319 13.247 9.73836 13.9274 9.70826C14.6654 9.67557 14.8868 9.6674 16.7538 9.6674C18.6207 9.6674 18.8452 9.67557 19.5806 9.70826C20.264 9.73836 20.633 9.85319 20.879 9.94866C21.1822 10.0609 21.4583 10.2385 21.6824 10.4708C21.9146 10.6978 22.0926 10.9709 22.2045 11.2746C22.2999 11.5206 22.4148 11.8921 22.4449 12.5729C22.4775 13.3109 22.4857 13.5324 22.4857 15.3993C22.4857 17.2663 22.4775 17.4852 22.4449 18.2232C22.4148 18.9065 22.2999 19.2755 22.2045 19.5215C21.9692 20.1314 21.4854 20.6152 20.876 20.85C20.63 20.9455 20.2584 21.0603 19.5776 21.0904C18.8396 21.1231 18.6181 21.1313 16.7512 21.1313L16.7516 21.1317Z" fill="white"/>
<path d="M16.749 11.7988C14.7642 11.7988 13.1541 13.4089 13.1541 15.3937C13.1541 17.3785 14.7642 18.9886 16.749 18.9886C18.7338 18.9886 20.3435 17.3785 20.3435 15.3937C20.3435 13.4089 18.7333 11.7988 16.749 11.7988ZM16.749 17.7251C15.4614 17.7251 14.4172 16.6809 14.4172 15.3933C14.4172 14.1057 15.4614 13.0614 16.749 13.0614C18.0366 13.0614 19.0808 14.1057 19.0808 15.3933C19.0808 16.6809 18.0366 17.7251 16.749 17.7251Z" fill="white"/>
<path d="M21.3248 11.6569C21.3248 11.1933 20.9489 10.8178 20.4853 10.8178C20.0217 10.8178 19.6462 11.1937 19.6462 11.6569C19.6462 12.1201 20.0221 12.4959 20.4853 12.4959C20.9485 12.4959 21.3248 12.1205 21.3248 11.6569Z" fill="white"/>
</g>
</g>
<defs>
<filter id="filter0_f_297_772" x="0.579551" y="10.0884" width="32.1038" height="24.1599" filterUnits="userSpaceOnUse" color-interpolation-filters="sRGB">
<feFlood flood-opacity="0" result="BackgroundImageFix"/>
<feBlend mode="normal" in="SourceGraphic" in2="BackgroundImageFix" result="shape"/>
<feGaussianBlur stdDeviation="2.73" result="effect1_foregroundBlur_297_772"/>
</filter>
<filter id="filter1_i_297_772" x="9.75098" y="8.39612" width="13.9937" height="14.149" filterUnits="userSpaceOnUse" color-interpolation-filters="sRGB">
<feFlood flood-opacity="0" result="BackgroundImageFix"/>
<feBlend mode="normal" in="SourceGraphic" in2="BackgroundImageFix" result="shape"/>
<feColorMatrix in="SourceAlpha" type="matrix" values="0 0 0 0 0 0 0 0 0 0 0 0 0 0 0 0 0 0 127 0" result="hardAlpha"/>
<feOffset dy="0.155484"/>
<feGaussianBlur stdDeviation="0.38871"/>
<feComposite in2="hardAlpha" operator="arithmetic" k2="-1" k3="1"/>
<feColorMatrix type="matrix" values="0 0 0 0 0 0 0 0 0 0 0 0 0 0 0 0 0 0 0.2 0"/>
<feBlend mode="normal" in2="shape" result="effect1_innerShadow_297_772"/>
</filter>
<filter id="filter2_i_297_772" x="9.75098" y="8.39612" width="13.9685" height="14.4935" filterUnits="userSpaceOnUse" color-interpolation-filters="sRGB">
<feFlood flood-opacity="0" result="BackgroundImageFix"/>
<feBlend mode="normal" in="SourceGraphic" in2="BackgroundImageFix" result="shape"/>
<feColorMatrix in="SourceAlpha" type="matrix" values="0 0 0 0 0 0 0 0 0 0 0 0 0 0 0 0 0 0 127 0" result="hardAlpha"/>
<feOffset dy="0.5"/>
<feGaussianBlur stdDeviation="1.25"/>
<feComposite in2="hardAlpha" operator="arithmetic" k2="-1" k3="1"/>
<feColorMatrix type="matrix" values="0 0 0 0 0 0 0 0 0 0 0 0 0 0 0 0 0 0 0.1 0"/>
<feBlend mode="normal" in2="shape" result="effect1_innerShadow_297_772"/>
</filter>
<linearGradient id="paint0_linear_297_772" x1="3.96877" y1="2.03691" x2="27.0537" y2="31.0968" gradientUnits="userSpaceOnUse">
<stop stop-color="#FBFBFC"/>
<stop offset="1" stop-color="#DBDDE8"/>
</linearGradient>
<linearGradient id="paint1_linear_297_772" x1="16.6315" y1="15.1359" x2="16.6315" y2="29.4822" gradientUnits="userSpaceOnUse">
<stop stop-color="#FCA759"/>
<stop offset="0.19" stop-color="#E82D56"/>
<stop offset="0.74" stop-color="#A22DB4"/>
<stop offset="1" stop-color="#643DCE"/>
</linearGradient>
<linearGradient id="paint2_linear_297_772" x1="16.8718" y1="3.32747" x2="16.8718" y2="28.1944" gradientUnits="userSpaceOnUse">
<stop stop-color="#FCA759"/>
<stop offset="0.19" stop-color="#E82D56"/>
<stop offset="0.74" stop-color="#A22DB4"/>
<stop offset="1" stop-color="#643DCE"/>
</linearGradient>
<clipPath id="clip0_297_772">
<rect width="13.9935" height="13.9935" fill="white" transform="translate(9.75098 8.39612)"/>
</clipPath>
</defs>
</svg>
