<svg width="25" height="25" viewBox="0 0 25 25" fill="none" xmlns="http://www.w3.org/2000/svg">
<path d="M12.4824 5.44706C11.3397 4.35046 9.78829 3.67651 8.07946 3.67651C4.56702 3.67651 1.71964 6.5239 1.71964 10.0363C1.71964 16.2673 8.53966 19.7082 11.3218 20.8526C12.071 21.1608 12.8938 21.1608 13.643 20.8526C16.4252 19.7082 23.2452 16.2673 23.2452 10.0363C23.2452 6.5239 20.3978 3.67651 16.8854 3.67651C15.1765 3.67651 13.6251 4.35046 12.4824 5.44706Z" fill="#3E7EFF"/>
<path d="M12.4824 5.44706C11.3397 4.35046 9.78829 3.67651 8.07946 3.67651C4.56702 3.67651 1.71964 6.5239 1.71964 10.0363C1.71964 16.2673 8.53966 19.7082 11.3218 20.8526C12.071 21.1608 12.8938 21.1608 13.643 20.8526C16.4252 19.7082 23.2452 16.2673 23.2452 10.0363C23.2452 6.5239 20.3978 3.67651 16.8854 3.67651C15.1765 3.67651 13.6251 4.35046 12.4824 5.44706Z" fill="#BDBDE0"/>
<path d="M12.4824 5.44706C11.3397 4.35046 9.78829 3.67651 8.07946 3.67651C4.56702 3.67651 1.71964 6.5239 1.71964 10.0363C1.71964 16.2673 8.53966 19.7082 11.3218 20.8526C12.071 21.1608 12.8938 21.1608 13.643 20.8526C16.4252 19.7082 23.2452 16.2673 23.2452 10.0363C23.2452 6.5239 20.3978 3.67651 16.8854 3.67651C15.1765 3.67651 13.6251 4.35046 12.4824 5.44706Z" fill="#EF466F"/>
</svg>
