<svg width="25" height="25" viewBox="0 0 25 25" fill="none" xmlns="http://www.w3.org/2000/svg">
<path d="M12.5528 5.5363C11.4101 4.4397 9.85869 3.76575 8.14986 3.76575C4.63743 3.76575 1.79004 6.61314 1.79004 10.1256C1.79004 16.3565 8.61006 19.7974 11.3922 20.9419C12.1414 21.2501 12.9642 21.2501 13.7134 20.9419C16.4956 19.7974 23.3156 16.3565 23.3156 10.1256C23.3156 6.61314 20.4682 3.76575 16.9558 3.76575C15.2469 3.76575 13.6955 4.4397 12.5528 5.5363Z" fill="#3E7EFF"/>
<path d="M12.5528 5.5363C11.4101 4.4397 9.85869 3.76575 8.14986 3.76575C4.63743 3.76575 1.79004 6.61314 1.79004 10.1256C1.79004 16.3565 8.61006 19.7974 11.3922 20.9419C12.1414 21.2501 12.9642 21.2501 13.7134 20.9419C16.4956 19.7974 23.3156 16.3565 23.3156 10.1256C23.3156 6.61314 20.4682 3.76575 16.9558 3.76575C15.2469 3.76575 13.6955 4.4397 12.5528 5.5363Z" fill="#BDBDE0"/>
</svg>
