<svg width="92" height="36" viewBox="0 0 92 36" fill="none" xmlns="http://www.w3.org/2000/svg">
<rect x="0.5" width="36" height="36" rx="18" fill="#3E7EFF"/>
<mask id="mask0_293_248" style="mask-type:luminance" maskUnits="userSpaceOnUse" x="0" y="0" width="37" height="36">
<rect x="0.5" width="36" height="36" rx="18" fill="white"/>
</mask>
<g mask="url(#mask0_293_248)">
<path fill-rule="evenodd" clip-rule="evenodd" d="M21.1397 18.2246C20.7046 18.3744 20.2296 18.1729 20.0797 17.7378L17.9446 11.5368C17.8072 11.1379 18.045 10.6505 18.4801 10.5006L23.1218 8.90238C23.5207 8.76503 24.0082 9.0028 24.1455 9.40169L26.2807 15.6026C26.4305 16.0378 26.1803 16.489 25.7814 16.6264L21.1397 18.2246ZM12.3182 17.8143C11.9193 17.9517 11.4318 17.7139 11.2944 17.315L10.2206 14.1964C10.0833 13.7975 10.321 13.31 10.7199 13.1727L15.3615 11.5744C15.7967 11.4246 16.2842 11.6624 16.4215 12.0613L17.4954 15.1799C17.6327 15.5788 17.3949 16.0662 16.9598 16.2161L12.3182 17.8143ZM14.4909 26.5983C14.6283 26.9972 15.1157 27.2349 15.5146 27.0976L20.1563 25.4994C20.5914 25.3495 20.8292 24.862 20.6918 24.4631L18.5567 18.2622C18.4069 17.827 17.9319 17.6255 17.4967 17.7754L12.8551 19.3736C12.4562 19.511 12.2059 19.9622 12.3558 20.3974L14.4909 26.5983Z" fill="white"/>
</g>
<path fill-rule="evenodd" clip-rule="evenodd" d="M46.6745 14.0196C46.4619 14.21 46.183 14.3052 45.8376 14.3052C45.4922 14.3052 45.2132 14.21 45.0007 14.0196C44.7882 13.8292 44.6819 13.5878 44.6819 13.2956C44.6819 12.9945 44.7882 12.7487 45.0007 12.5583C45.2132 12.3679 45.4922 12.2727 45.8376 12.2727C46.183 12.2727 46.4619 12.3679 46.6745 12.5583C46.887 12.7487 46.9933 12.9945 46.9933 13.2956C46.9933 13.5878 46.887 13.8292 46.6745 14.0196ZM46.7675 15.4077V22.767H44.8944V15.4077H46.7675ZM52.2006 22.86C52.9179 22.86 53.5622 22.7072 54.1334 22.4017C54.7046 22.0962 55.154 21.66 55.4817 21.0933C55.8094 20.5265 55.9732 19.8578 55.9732 19.0874C55.9732 18.3169 55.8094 17.6461 55.4817 17.0749C55.154 16.5037 54.7046 16.0675 54.1334 15.7664C53.5622 15.4653 52.9179 15.3148 52.2006 15.3148C51.4832 15.3148 50.839 15.4653 50.2678 15.7664C49.6966 16.0675 49.2471 16.5037 48.9194 17.0749C48.5918 17.6461 48.4279 18.3169 48.4279 19.0874C48.4279 19.8578 48.5918 20.5265 48.9194 21.0933C49.2471 21.66 49.6966 22.0962 50.2678 22.4017C50.839 22.7072 51.4832 22.86 52.2006 22.86ZM50.8722 20.6881C51.2353 21.0556 51.6781 21.2394 52.2006 21.2394C52.7231 21.2394 53.1659 21.0556 53.529 20.6881C53.8921 20.3206 54.0736 19.787 54.0736 19.0874C54.0736 18.3878 53.8921 17.8542 53.529 17.4867C53.1659 17.1191 52.7231 16.9354 52.2006 16.9354C51.6781 16.9354 51.2353 17.1191 50.8722 17.4867C50.5091 17.8542 50.3275 18.3878 50.3275 19.0874C50.3275 19.787 50.5091 20.3206 50.8722 20.6881ZM60.5163 22.86C61.1362 22.86 61.6654 22.7117 62.1037 22.415C62.5421 22.1183 62.8587 21.722 63.0535 21.2261V22.767H64.9133V12.9369H63.0535V16.9354C62.8587 16.4395 62.5421 16.0454 62.1037 15.7531C61.6654 15.4609 61.1362 15.3147 60.5163 15.3147C59.8964 15.3147 59.3385 15.4653 58.8425 15.7664C58.3466 16.0675 57.9591 16.5037 57.6802 17.0749C57.4012 17.6461 57.2617 18.3169 57.2617 19.0874C57.2617 19.8578 57.4012 20.5287 57.6802 21.0999C57.9591 21.6711 58.3466 22.1073 58.8425 22.4084C59.3385 22.7095 59.8964 22.86 60.5163 22.86ZM59.6927 20.6482C60.0469 21.0246 60.5163 21.2128 61.1008 21.2128C61.6676 21.2128 62.1347 21.0202 62.5022 20.635C62.8698 20.2497 63.0535 19.7339 63.0535 19.0874C63.0535 18.432 62.8698 17.9118 62.5022 17.5265C62.1347 17.1413 61.6676 16.9487 61.1008 16.9487C60.5163 16.9487 60.0469 17.1391 59.6927 17.5199C59.3385 17.9007 59.1613 18.4232 59.1613 19.0874C59.1613 19.7516 59.3385 20.2719 59.6927 20.6482ZM69.8283 22.86C70.4482 22.86 70.9796 22.7117 71.4224 22.415C71.8652 22.1183 72.1796 21.722 72.3655 21.2261V22.767H74.2253V15.4077H72.3655V16.9354C72.1796 16.4395 71.8652 16.0454 71.4224 15.7531C70.9796 15.4609 70.4482 15.3148 69.8283 15.3148C69.2084 15.3148 68.6505 15.4653 68.1545 15.7664C67.6586 16.0675 67.2712 16.5037 66.9922 17.0749C66.7132 17.6461 66.5738 18.3169 66.5738 19.0874C66.5738 19.8578 66.7132 20.5287 66.9922 21.0999C67.2712 21.6711 67.6586 22.1073 68.1545 22.4084C68.6505 22.7095 69.2084 22.86 69.8283 22.86ZM69.0047 20.6482C69.359 21.0246 69.8283 21.2128 70.4128 21.2128C70.9796 21.2128 71.4467 21.0202 71.8143 20.635C72.1818 20.2497 72.3655 19.7339 72.3655 19.0874C72.3655 18.432 72.1818 17.9118 71.8143 17.5265C71.4467 17.1413 70.9796 16.9487 70.4128 16.9487C69.8283 16.9487 69.359 17.1391 69.0047 17.5199C68.6505 17.9007 68.4734 18.4232 68.4734 19.0874C68.4734 19.7516 68.6505 20.2719 69.0047 20.6482ZM79.3263 22.86C80.1588 22.86 80.8208 22.6652 81.3123 22.2755C81.8038 21.8859 82.0495 21.3766 82.0495 20.7479C82.0495 20.2431 81.9233 19.8423 81.6709 19.5457C81.4185 19.249 81.1174 19.032 80.7676 18.8948C80.4178 18.7575 79.9639 18.6269 79.406 18.5029C79.0075 18.4055 78.702 18.3213 78.4894 18.2505C78.2769 18.1796 78.0998 18.0822 77.9581 17.9582C77.8164 17.8343 77.7455 17.6704 77.7455 17.4667C77.7455 17.2099 77.8341 17.0062 78.0112 16.8557C78.1883 16.7051 78.4363 16.6299 78.7551 16.6299C79.1536 16.6299 79.4769 16.7361 79.7248 16.9487C79.9728 17.1612 80.1322 17.4446 80.203 17.7988H81.9565C81.8237 17.0461 81.4872 16.4439 80.9469 15.9922C80.4067 15.5406 79.6894 15.3148 78.795 15.3148C77.9359 15.3148 77.2629 15.514 76.7758 15.9125C76.2887 16.311 76.0452 16.8291 76.0452 17.4667C76.0452 17.9627 76.167 18.3523 76.4105 18.6357C76.654 18.9191 76.9463 19.125 77.2872 19.2534C77.6282 19.3818 78.0732 19.508 78.6223 19.632C79.0208 19.7294 79.3285 19.8136 79.5455 19.8844C79.7625 19.9553 79.944 20.0571 80.0901 20.1899C80.2363 20.3228 80.3093 20.4955 80.3093 20.708C80.3093 20.956 80.2252 21.1575 80.0569 21.3124C79.8887 21.4674 79.6451 21.5449 79.3263 21.5449C78.8835 21.5449 78.5248 21.4408 78.2503 21.2327C77.9758 21.0246 77.8164 20.739 77.7721 20.3759H75.9788C76.1027 21.173 76.4526 21.7862 77.0282 22.2157C77.6038 22.6453 78.3699 22.86 79.3263 22.86ZM85.6494 18.8616V22.767H83.7764V12.9369H85.6494V16.8823C85.8443 16.3863 86.1653 15.9989 86.6125 15.7199C87.0598 15.4409 87.5756 15.3015 88.1601 15.3015C89.0103 15.3015 89.6878 15.5804 90.1925 16.1384C90.6973 16.6963 90.9497 17.48 90.9497 18.4896V22.767H89.09V18.7021C89.09 18.1177 88.9394 17.6638 88.6383 17.3405C88.3372 17.0173 87.9254 16.8557 87.4029 16.8557C86.8716 16.8557 86.4465 17.0284 86.1277 17.3738C85.8089 17.7191 85.6494 18.2151 85.6494 18.8616Z" fill="#171721"/>
</svg>
