<svg width="33" height="35" viewBox="0 0 33 35" fill="none" xmlns="http://www.w3.org/2000/svg">
<rect x="1.48389" width="31.0968" height="31.0968" rx="9.32903" fill="url(#paint0_linear_93_5136)"/>
<g opacity="0.25" filter="url(#filter0_f_93_5136)">
<rect x="6.16895" y="15.5484" width="21.1838" height="13.2399" rx="6.61995" fill="url(#paint1_linear_93_5136)"/>
</g>
<rect x="5.52637" y="4.04254" width="22.9491" height="22.9491" rx="9.32903" fill="url(#paint2_linear_93_5136)"/>
<g clip-path="url(#clip0_93_5136)" filter="url(#filter1_i_93_5136)">
<path d="M16.2721 8.75286C14.053 9.00668 11.8417 10.8462 11.7504 13.4739C11.6931 15.0783 12.1377 16.282 13.6279 16.6199C14.2746 15.451 13.4193 15.1932 13.2863 14.3476C12.74 10.8823 17.1874 8.51908 19.5147 10.9384C21.1249 12.6136 20.0649 17.7675 17.4677 17.2318C14.98 16.7201 18.6855 12.6176 16.6997 11.8121C15.0856 11.1575 14.2277 13.8146 14.993 15.1344C14.5445 17.4041 13.5784 19.5429 13.9695 22.3897C15.2382 21.4465 15.6658 19.6404 16.0165 17.7568C16.6541 18.1536 16.9944 18.5663 17.808 18.6305C20.8081 18.8683 22.4835 15.5619 22.0741 12.5121C21.7103 9.80822 19.0766 8.43224 16.2721 8.75286Z" fill="white"/>
</g>
<defs>
<filter id="filter0_f_93_5136" x="0.708945" y="10.0884" width="32.1036" height="24.1599" filterUnits="userSpaceOnUse" color-interpolation-filters="sRGB">
<feFlood flood-opacity="0" result="BackgroundImageFix"/>
<feBlend mode="normal" in="SourceGraphic" in2="BackgroundImageFix" result="shape"/>
<feGaussianBlur stdDeviation="2.73" result="effect1_foregroundBlur_93_5136"/>
</filter>
<filter id="filter1_i_93_5136" x="9.87988" y="8.39613" width="13.9937" height="14.4935" filterUnits="userSpaceOnUse" color-interpolation-filters="sRGB">
<feFlood flood-opacity="0" result="BackgroundImageFix"/>
<feBlend mode="normal" in="SourceGraphic" in2="BackgroundImageFix" result="shape"/>
<feColorMatrix in="SourceAlpha" type="matrix" values="0 0 0 0 0 0 0 0 0 0 0 0 0 0 0 0 0 0 127 0" result="hardAlpha"/>
<feOffset dy="0.5"/>
<feGaussianBlur stdDeviation="1.25"/>
<feComposite in2="hardAlpha" operator="arithmetic" k2="-1" k3="1"/>
<feColorMatrix type="matrix" values="0 0 0 0 0 0 0 0 0 0 0 0 0 0 0 0 0 0 0.1 0"/>
<feBlend mode="normal" in2="shape" result="effect1_innerShadow_93_5136"/>
</filter>
<linearGradient id="paint0_linear_93_5136" x1="4.09792" y1="2.03691" x2="27.1829" y2="31.0968" gradientUnits="userSpaceOnUse">
<stop stop-color="#FBFBFC"/>
<stop offset="1" stop-color="#DBDDE8"/>
</linearGradient>
<linearGradient id="paint1_linear_93_5136" x1="18.2249" y1="29.1831" x2="13.9069" y2="13.9638" gradientUnits="userSpaceOnUse">
<stop stop-color="#CC0606"/>
<stop offset="1" stop-color="#FF0000"/>
</linearGradient>
<linearGradient id="paint2_linear_93_5136" x1="18.587" y1="27.6761" x2="7.85863" y2="4.04254" gradientUnits="userSpaceOnUse">
<stop stop-color="#CC0606"/>
<stop offset="1" stop-color="#FF0000"/>
</linearGradient>
<clipPath id="clip0_93_5136">
<rect width="13.9935" height="13.9935" fill="white" transform="translate(9.87988 8.39613)"/>
</clipPath>
</defs>
</svg>
