<svg width="17" height="18" viewBox="0 0 17 18" fill="none" xmlns="http://www.w3.org/2000/svg">
<path fill-rule="evenodd" clip-rule="evenodd" d="M11.657 7.44371C11.3965 7.18474 10.9757 7.18474 10.7152 7.44371L8.31734 9.80821L5.95284 7.44371C5.69232 7.18474 5.27157 7.18474 5.01105 7.44371C4.8846 7.56913 4.81348 7.73985 4.81348 7.91795C4.81348 8.09604 4.8846 8.26677 5.01105 8.39218L7.8431 11.2242C7.96852 11.3507 8.13924 11.4218 8.31734 11.4218C8.49543 11.4218 8.66616 11.3507 8.79157 11.2242L11.657 8.39218C11.7835 8.26677 11.8546 8.09604 11.8546 7.91795C11.8546 7.73985 11.7835 7.56913 11.657 7.44371Z" fill="#726BEA"/>
</svg>
