<svg width="33" height="35" viewBox="0 0 33 35" fill="none" xmlns="http://www.w3.org/2000/svg">
<rect x="1.54834" width="31.0968" height="31.0968" rx="9.32903" fill="url(#paint0_linear_297_787)"/>
<g opacity="0.25" filter="url(#filter0_f_297_787)">
<rect x="6.23315" y="15.5484" width="21.1838" height="13.2399" rx="6.61995" fill="url(#paint1_linear_297_787)"/>
</g>
<rect x="5.59082" y="4.04254" width="22.9491" height="22.9491" rx="9.32903" fill="url(#paint2_linear_297_787)"/>
<g clip-path="url(#clip0_297_787)" filter="url(#filter1_i_297_787)">
<path d="M11.64 14.7913C11.64 14.7913 17.1414 12.3515 19.0493 11.4924C19.7808 11.1488 22.2611 10.0491 22.2611 10.0491C22.2611 10.0491 23.4059 9.56804 23.3105 10.7364C23.2787 11.2175 23.0243 12.9013 22.7699 14.7225C22.3883 17.2998 21.9749 20.1176 21.9749 20.1176C21.9749 20.1176 21.9113 20.908 21.3707 21.0454C20.8301 21.1829 19.9397 20.5644 19.7808 20.4269C19.6535 20.3238 17.3958 18.7774 16.569 18.0214C16.3464 17.8153 16.092 17.4029 16.6008 16.9218C17.7456 15.7878 19.1129 14.3789 19.9397 13.4855C20.3213 13.0731 20.7029 12.1109 19.1129 13.2793C16.8552 14.9631 14.6292 16.5438 14.6292 16.5438C14.6292 16.5438 14.1204 16.8874 13.1664 16.5782C12.2124 16.2689 11.0994 15.8565 11.0994 15.8565C11.0994 15.8565 10.3363 15.3411 11.64 14.7913Z" fill="white"/>
</g>
<defs>
<filter id="filter0_f_297_787" x="0.773154" y="10.0884" width="32.1038" height="24.1599" filterUnits="userSpaceOnUse" color-interpolation-filters="sRGB">
<feFlood flood-opacity="0" result="BackgroundImageFix"/>
<feBlend mode="normal" in="SourceGraphic" in2="BackgroundImageFix" result="shape"/>
<feGaussianBlur stdDeviation="2.73" result="effect1_foregroundBlur_297_787"/>
</filter>
<filter id="filter1_i_297_787" x="9.94458" y="8.39612" width="13.9937" height="14.4935" filterUnits="userSpaceOnUse" color-interpolation-filters="sRGB">
<feFlood flood-opacity="0" result="BackgroundImageFix"/>
<feBlend mode="normal" in="SourceGraphic" in2="BackgroundImageFix" result="shape"/>
<feColorMatrix in="SourceAlpha" type="matrix" values="0 0 0 0 0 0 0 0 0 0 0 0 0 0 0 0 0 0 127 0" result="hardAlpha"/>
<feOffset dy="0.5"/>
<feGaussianBlur stdDeviation="1.25"/>
<feComposite in2="hardAlpha" operator="arithmetic" k2="-1" k3="1"/>
<feColorMatrix type="matrix" values="0 0 0 0 0 0 0 0 0 0 0 0 0 0 0 0 0 0 0.1 0"/>
<feBlend mode="normal" in2="shape" result="effect1_innerShadow_297_787"/>
</filter>
<linearGradient id="paint0_linear_297_787" x1="4.16237" y1="2.03691" x2="27.2473" y2="31.0968" gradientUnits="userSpaceOnUse">
<stop stop-color="#FBFBFC"/>
<stop offset="1" stop-color="#DBDDE8"/>
</linearGradient>
<linearGradient id="paint1_linear_297_787" x1="8.09896" y1="16.5351" x2="17.6888" y2="33.1263" gradientUnits="userSpaceOnUse">
<stop stop-color="#0088CC"/>
<stop offset="1" stop-color="#0083C5"/>
</linearGradient>
<linearGradient id="paint2_linear_297_787" x1="7.61211" y1="5.75286" x2="26.7366" y2="26.4322" gradientUnits="userSpaceOnUse">
<stop stop-color="#0088CC"/>
<stop offset="1" stop-color="#0083C5"/>
</linearGradient>
<clipPath id="clip0_297_787">
<rect width="13.9935" height="13.9935" fill="white" transform="translate(9.94458 8.39612)"/>
</clipPath>
</defs>
</svg>
