<svg width="33" height="35" viewBox="0 0 33 35" fill="none" xmlns="http://www.w3.org/2000/svg">
<rect x="1.45142" width="31.0968" height="31.0968" rx="9.32903" fill="url(#paint0_linear_297_781)"/>
<g opacity="0.25" filter="url(#filter0_f_297_781)">
<rect x="6.13623" y="15.5484" width="21.1838" height="13.2399" rx="6.61995" fill="url(#paint1_linear_297_781)"/>
</g>
<rect x="5.4939" y="4.04254" width="22.9491" height="22.9491" rx="9.32903" fill="url(#paint2_linear_297_781)"/>
<g clip-path="url(#clip0_297_781)" filter="url(#filter1_i_297_781)">
<path d="M23.779 11.027C23.3263 11.2219 22.8504 11.3577 22.3631 11.4309C22.5909 11.3918 22.9262 10.9813 23.0596 10.8152C23.2624 10.5646 23.4169 10.2785 23.5153 9.97143C23.5153 9.94863 23.5381 9.91605 23.5153 9.89976C23.5038 9.89349 23.491 9.8902 23.4779 9.8902C23.4648 9.8902 23.4519 9.89349 23.4405 9.89976C22.9113 10.1866 22.3481 10.4055 21.7642 10.5513C21.7438 10.5575 21.7222 10.5581 21.7015 10.5529C21.6809 10.5478 21.662 10.5371 21.647 10.522C21.6016 10.4678 21.5526 10.4167 21.5005 10.3689C21.2624 10.1553 20.9922 9.98052 20.6998 9.85089C20.3052 9.68884 19.8789 9.61866 19.4532 9.64565C19.0401 9.67176 18.6369 9.78265 18.2684 9.97143C17.9056 10.1705 17.5868 10.4408 17.331 10.7663C17.062 11.1013 16.8678 11.4901 16.7614 11.9066C16.6737 12.3027 16.6638 12.712 16.7321 13.1119C16.7321 13.1803 16.7321 13.1901 16.6735 13.1803C14.3528 12.8383 12.4487 12.0141 10.8929 10.2451C10.8245 10.1669 10.7887 10.1669 10.7334 10.2451C10.0564 11.2745 10.3851 12.9034 11.2314 13.7081C11.3453 13.8156 11.4625 13.9199 11.5861 14.0176C11.1981 13.99 10.8196 13.8848 10.473 13.7081C10.4079 13.6658 10.3721 13.6886 10.3688 13.7667C10.3596 13.8751 10.3596 13.9841 10.3688 14.0925C10.4367 14.612 10.6413 15.1041 10.9615 15.5185C11.2818 15.9329 11.7063 16.2548 12.1916 16.4512C12.3099 16.5019 12.4331 16.5401 12.5594 16.5652C12.2002 16.636 11.8318 16.647 11.469 16.5978C11.3909 16.5815 11.3616 16.6238 11.3909 16.6988C11.8693 18.0019 12.9076 18.3993 13.6693 18.6208C13.7734 18.6371 13.8776 18.6371 13.9948 18.6632C13.9948 18.6632 13.9948 18.6632 13.9752 18.6827C13.7507 19.0932 12.8425 19.3701 12.4259 19.5135C11.6655 19.7869 10.8547 19.8914 10.0498 19.8197C9.9229 19.8002 9.89361 19.8034 9.86106 19.8197C9.82851 19.836 9.86106 19.8718 9.89686 19.9044C10.0596 20.0119 10.2224 20.1064 10.3916 20.1976C10.8955 20.4727 11.4282 20.6912 11.98 20.8492C14.8378 21.6376 18.0536 21.0577 20.1986 18.9238C21.8846 17.2493 22.477 14.9395 22.477 12.6265C22.477 12.5386 22.5844 12.4864 22.6463 12.4408C23.0728 12.1082 23.4489 11.7153 23.7627 11.2745C23.817 11.2088 23.8449 11.1252 23.8408 11.04C23.8408 10.9911 23.8408 11.0009 23.779 11.027Z" fill="white"/>
</g>
<defs>
<filter id="filter0_f_297_781" x="0.67623" y="10.0884" width="32.1038" height="24.1599" filterUnits="userSpaceOnUse" color-interpolation-filters="sRGB">
<feFlood flood-opacity="0" result="BackgroundImageFix"/>
<feBlend mode="normal" in="SourceGraphic" in2="BackgroundImageFix" result="shape"/>
<feGaussianBlur stdDeviation="2.73" result="effect1_foregroundBlur_297_781"/>
</filter>
<filter id="filter1_i_297_781" x="9.84766" y="8.39612" width="13.9937" height="14.4935" filterUnits="userSpaceOnUse" color-interpolation-filters="sRGB">
<feFlood flood-opacity="0" result="BackgroundImageFix"/>
<feBlend mode="normal" in="SourceGraphic" in2="BackgroundImageFix" result="shape"/>
<feColorMatrix in="SourceAlpha" type="matrix" values="0 0 0 0 0 0 0 0 0 0 0 0 0 0 0 0 0 0 127 0" result="hardAlpha"/>
<feOffset dy="0.5"/>
<feGaussianBlur stdDeviation="1.25"/>
<feComposite in2="hardAlpha" operator="arithmetic" k2="-1" k3="1"/>
<feColorMatrix type="matrix" values="0 0 0 0 0 0 0 0 0 0 0 0 0 0 0 0 0 0 0.1 0"/>
<feBlend mode="normal" in2="shape" result="effect1_innerShadow_297_781"/>
</filter>
<linearGradient id="paint0_linear_297_781" x1="4.06545" y1="2.03691" x2="27.1504" y2="31.0968" gradientUnits="userSpaceOnUse">
<stop stop-color="#FBFBFC"/>
<stop offset="1" stop-color="#DBDDE8"/>
</linearGradient>
<linearGradient id="paint1_linear_297_781" x1="6.5668" y1="15.5484" x2="15.9028" y2="34.2498" gradientUnits="userSpaceOnUse">
<stop stop-color="#00A2F4"/>
<stop offset="1" stop-color="#05ABFF"/>
</linearGradient>
<linearGradient id="paint2_linear_297_781" x1="5.96035" y1="4.04254" x2="25.7068" y2="28.7645" gradientUnits="userSpaceOnUse">
<stop stop-color="#0CA8F7"/>
<stop offset="1" stop-color="#0096E1"/>
</linearGradient>
<clipPath id="clip0_297_781">
<rect width="13.9935" height="13.9935" fill="white" transform="translate(9.84766 8.39612)"/>
</clipPath>
</defs>
</svg>
