<svg width="33" height="35" viewBox="0 0 33 35" fill="none" xmlns="http://www.w3.org/2000/svg">
<rect x="1.38721" width="31.0968" height="31.0968" rx="9.32903" fill="url(#paint0_linear_93_5134)"/>
<g opacity="0.25" filter="url(#filter0_f_93_5134)">
<rect x="6.07227" y="15.5484" width="21.1838" height="13.2399" rx="6.61995" fill="url(#paint1_linear_93_5134)"/>
</g>
<rect x="5.42969" y="4.04254" width="22.9491" height="22.9491" rx="9.32903" fill="url(#paint2_linear_93_5134)"/>
<g clip-path="url(#clip0_93_5134)" filter="url(#filter1_i_93_5134)">
<path fill-rule="evenodd" clip-rule="evenodd" d="M22.8696 12.9079C22.9561 12.6375 22.8696 12.4387 22.4581 12.4387H21.0973C20.7513 12.4387 20.5918 12.6104 20.5052 12.7997C20.5052 12.7997 19.8132 14.382 18.8329 15.4098C18.5157 15.7073 18.3716 15.802 18.1985 15.802C18.1121 15.802 17.9868 15.7073 17.9868 15.4369V12.9079C17.9868 12.5834 17.8864 12.4387 17.5981 12.4387H15.4597C15.2434 12.4387 15.1134 12.5894 15.1134 12.7321C15.1134 13.0398 15.6035 13.1108 15.6541 13.9763V15.8561C15.6541 16.2683 15.5747 16.343 15.4017 16.343C14.9404 16.343 13.8182 14.7536 13.1527 12.935C13.0223 12.5815 12.8915 12.4387 12.5437 12.4387H11.1829C10.7941 12.4387 10.7163 12.6104 10.7163 12.7997C10.7163 13.1378 11.1776 14.8148 12.8644 17.0327C13.9889 18.5473 15.5732 19.3684 17.0149 19.3684C17.8799 19.3684 17.9869 19.186 17.9869 18.8719V17.7272C17.9869 17.3624 18.0688 17.2896 18.3427 17.2896C18.5446 17.2896 18.8906 17.3843 19.6979 18.1146C20.6206 18.9801 20.7727 19.3684 21.2917 19.3684H22.6525C23.0413 19.3684 23.2357 19.186 23.1235 18.8262C23.0008 18.4675 22.5603 17.9471 21.9758 17.3302C21.6586 16.9786 21.1828 16.5999 21.0386 16.4106C20.8368 16.1672 20.8945 16.059 21.0386 15.8426C21.0386 15.8426 22.6966 13.6517 22.8696 12.9079Z" fill="white"/>
</g>
<defs>
<filter id="filter0_f_93_5134" x="0.612266" y="10.0884" width="32.1036" height="24.1599" filterUnits="userSpaceOnUse" color-interpolation-filters="sRGB">
<feFlood flood-opacity="0" result="BackgroundImageFix"/>
<feBlend mode="normal" in="SourceGraphic" in2="BackgroundImageFix" result="shape"/>
<feGaussianBlur stdDeviation="2.73" result="effect1_foregroundBlur_93_5134"/>
</filter>
<filter id="filter1_i_93_5134" x="9.7832" y="8.39613" width="13.9937" height="14.4935" filterUnits="userSpaceOnUse" color-interpolation-filters="sRGB">
<feFlood flood-opacity="0" result="BackgroundImageFix"/>
<feBlend mode="normal" in="SourceGraphic" in2="BackgroundImageFix" result="shape"/>
<feColorMatrix in="SourceAlpha" type="matrix" values="0 0 0 0 0 0 0 0 0 0 0 0 0 0 0 0 0 0 127 0" result="hardAlpha"/>
<feOffset dy="0.5"/>
<feGaussianBlur stdDeviation="1.25"/>
<feComposite in2="hardAlpha" operator="arithmetic" k2="-1" k3="1"/>
<feColorMatrix type="matrix" values="0 0 0 0 0 0 0 0 0 0 0 0 0 0 0 0 0 0 0.1 0"/>
<feBlend mode="normal" in2="shape" result="effect1_innerShadow_93_5134"/>
</filter>
<linearGradient id="paint0_linear_93_5134" x1="4.00124" y1="2.03691" x2="27.0862" y2="31.0968" gradientUnits="userSpaceOnUse">
<stop stop-color="#FBFBFC"/>
<stop offset="1" stop-color="#DBDDE8"/>
</linearGradient>
<linearGradient id="paint1_linear_93_5134" x1="18.1282" y1="29.1831" x2="13.8103" y2="13.9638" gradientUnits="userSpaceOnUse">
<stop offset="0.0729167" stop-color="#1568C8"/>
<stop offset="0.927083" stop-color="#3F98FF"/>
</linearGradient>
<linearGradient id="paint2_linear_93_5134" x1="18.4903" y1="27.6761" x2="7.76195" y2="4.04254" gradientUnits="userSpaceOnUse">
<stop offset="0.0729167" stop-color="#1568C8"/>
<stop offset="0.927083" stop-color="#3F98FF"/>
</linearGradient>
<clipPath id="clip0_93_5134">
<rect width="13.9935" height="13.9935" fill="white" transform="translate(9.7832 8.39613)"/>
</clipPath>
</defs>
</svg>
