<svg width="48" height="48" viewBox="0 0 48 48" fill="none" xmlns="http://www.w3.org/2000/svg">
<rect width="48" height="48" rx="24" fill="#E6EBFA"/>
<rect x="6" y="6" width="36" height="36" rx="18" fill="#3E7EFF"/>
<mask id="mask0_87_4994" style="mask-type:luminance" maskUnits="userSpaceOnUse" x="6" y="6" width="36" height="36">
<rect x="6" y="6" width="36" height="36" rx="18" fill="white"/>
</mask>
<g mask="url(#mask0_87_4994)">
<path fill-rule="evenodd" clip-rule="evenodd" d="M26.6397 24.2246C26.2046 24.3744 25.7296 24.1729 25.5797 23.7378L23.4446 17.5369C23.3072 17.138 23.545 16.6505 23.9801 16.5006L28.6218 14.9024C29.0207 14.765 29.5082 15.0028 29.6455 15.4017L31.7807 21.6026C31.9305 22.0378 31.6803 22.489 31.2814 22.6264L26.6397 24.2246ZM17.8182 23.8143C17.4193 23.9517 16.9318 23.7139 16.7944 23.315L15.7206 20.1964C15.5833 19.7975 15.821 19.3101 16.2199 19.1727L20.8615 17.5745C21.2967 17.4246 21.7842 17.6624 21.9215 18.0613L22.9954 21.1799C23.1327 21.5788 22.8949 22.0663 22.4598 22.2161L17.8182 23.8143ZM19.9909 32.5983C20.1283 32.9972 20.6157 33.235 21.0146 33.0976L25.6563 31.4994C26.0914 31.3495 26.3292 30.862 26.1918 30.4632L24.0567 24.2622C23.9069 23.8271 23.4319 23.6256 22.9967 23.7754L18.3551 25.3736C17.9562 25.511 17.7059 25.9622 17.8558 26.3974L19.9909 32.5983Z" fill="white"/>
</g>
</svg>
